<mxfile host="app.diagrams.net" modified="2021-09-26T14:43:21.431Z" agent="5.0 (Windows NT 10.0; Win64; x64) AppleWebKit/537.36 (KHTML, like Gecko) Chrome/93.0.4577.82 Safari/537.36 Edg/93.0.961.52" etag="xo_n33CDJTIUfnVVTq1X" version="15.1.1" type="github">
  <diagram id="-ig_xN7eAk5Y5K3JmYrF" name="Page-1">
    <mxGraphModel dx="1550" dy="905" grid="1" gridSize="10" guides="1" tooltips="1" connect="1" arrows="1" fold="1" page="1" pageScale="1" pageWidth="827" pageHeight="1169" background="none" math="0" shadow="0">
      <root>
        <mxCell id="0" />
        <mxCell id="1" parent="0" />
        <mxCell id="O5_ibAGLlx0cMh9g0pgZ-6" value="" style="edgeStyle=none;rounded=0;orthogonalLoop=1;jettySize=auto;html=1;" edge="1" parent="1" source="O5_ibAGLlx0cMh9g0pgZ-1">
          <mxGeometry relative="1" as="geometry">
            <mxPoint x="400" y="220" as="targetPoint" />
          </mxGeometry>
        </mxCell>
        <mxCell id="O5_ibAGLlx0cMh9g0pgZ-1" value="输入参数，进入程序" style="rounded=0;whiteSpace=wrap;html=1;" vertex="1" parent="1">
          <mxGeometry x="340" y="80" width="120" height="60" as="geometry" />
        </mxCell>
        <mxCell id="O5_ibAGLlx0cMh9g0pgZ-12" value="" style="edgeStyle=none;rounded=0;orthogonalLoop=1;jettySize=auto;html=1;" edge="1" parent="1" source="O5_ibAGLlx0cMh9g0pgZ-7" target="O5_ibAGLlx0cMh9g0pgZ-11">
          <mxGeometry relative="1" as="geometry" />
        </mxCell>
        <mxCell id="O5_ibAGLlx0cMh9g0pgZ-14" value="" style="edgeStyle=none;rounded=0;orthogonalLoop=1;jettySize=auto;html=1;" edge="1" parent="1" source="O5_ibAGLlx0cMh9g0pgZ-7" target="O5_ibAGLlx0cMh9g0pgZ-13">
          <mxGeometry relative="1" as="geometry" />
        </mxCell>
        <mxCell id="O5_ibAGLlx0cMh9g0pgZ-16" value="" style="edgeStyle=none;rounded=0;orthogonalLoop=1;jettySize=auto;html=1;" edge="1" parent="1" source="O5_ibAGLlx0cMh9g0pgZ-7" target="O5_ibAGLlx0cMh9g0pgZ-15">
          <mxGeometry relative="1" as="geometry" />
        </mxCell>
        <mxCell id="O5_ibAGLlx0cMh9g0pgZ-7" value="判断参数个数" style="rhombus;whiteSpace=wrap;html=1;" vertex="1" parent="1">
          <mxGeometry x="360" y="220" width="80" height="80" as="geometry" />
        </mxCell>
        <mxCell id="O5_ibAGLlx0cMh9g0pgZ-18" value="" style="edgeStyle=none;rounded=0;orthogonalLoop=1;jettySize=auto;html=1;" edge="1" parent="1" source="O5_ibAGLlx0cMh9g0pgZ-11" target="O5_ibAGLlx0cMh9g0pgZ-17">
          <mxGeometry relative="1" as="geometry" />
        </mxCell>
        <mxCell id="O5_ibAGLlx0cMh9g0pgZ-11" value="1个参数" style="whiteSpace=wrap;html=1;" vertex="1" parent="1">
          <mxGeometry x="180" y="230" width="120" height="60" as="geometry" />
        </mxCell>
        <mxCell id="O5_ibAGLlx0cMh9g0pgZ-20" value="" style="edgeStyle=none;rounded=0;orthogonalLoop=1;jettySize=auto;html=1;" edge="1" parent="1" source="O5_ibAGLlx0cMh9g0pgZ-13" target="O5_ibAGLlx0cMh9g0pgZ-19">
          <mxGeometry relative="1" as="geometry" />
        </mxCell>
        <mxCell id="O5_ibAGLlx0cMh9g0pgZ-13" value="两个参数" style="whiteSpace=wrap;html=1;" vertex="1" parent="1">
          <mxGeometry x="500" y="230" width="120" height="60" as="geometry" />
        </mxCell>
        <mxCell id="O5_ibAGLlx0cMh9g0pgZ-28" value="" style="edgeStyle=none;rounded=0;orthogonalLoop=1;jettySize=auto;html=1;" edge="1" parent="1" source="O5_ibAGLlx0cMh9g0pgZ-15" target="O5_ibAGLlx0cMh9g0pgZ-27">
          <mxGeometry relative="1" as="geometry" />
        </mxCell>
        <mxCell id="O5_ibAGLlx0cMh9g0pgZ-15" value="三个参数" style="whiteSpace=wrap;html=1;" vertex="1" parent="1">
          <mxGeometry x="340" y="390" width="120" height="60" as="geometry" />
        </mxCell>
        <mxCell id="O5_ibAGLlx0cMh9g0pgZ-30" style="edgeStyle=none;rounded=0;orthogonalLoop=1;jettySize=auto;html=1;exitX=0.5;exitY=1;exitDx=0;exitDy=0;" edge="1" parent="1" source="O5_ibAGLlx0cMh9g0pgZ-17">
          <mxGeometry relative="1" as="geometry">
            <mxPoint x="400" y="640" as="targetPoint" />
            <Array as="points">
              <mxPoint x="240" y="640" />
            </Array>
          </mxGeometry>
        </mxCell>
        <mxCell id="O5_ibAGLlx0cMh9g0pgZ-17" value="该参数只能是可执行文件名，向默认文件写入随机数据" style="whiteSpace=wrap;html=1;" vertex="1" parent="1">
          <mxGeometry x="180" y="370" width="120" height="60" as="geometry" />
        </mxCell>
        <mxCell id="O5_ibAGLlx0cMh9g0pgZ-31" style="edgeStyle=none;rounded=0;orthogonalLoop=1;jettySize=auto;html=1;exitX=0.5;exitY=1;exitDx=0;exitDy=0;" edge="1" parent="1" source="O5_ibAGLlx0cMh9g0pgZ-19">
          <mxGeometry relative="1" as="geometry">
            <mxPoint x="400" y="640" as="targetPoint" />
            <Array as="points">
              <mxPoint x="560" y="640" />
            </Array>
          </mxGeometry>
        </mxCell>
        <mxCell id="O5_ibAGLlx0cMh9g0pgZ-19" value="除可执行文件名外，还有一个参数，可能是目标文件名，也可能是指定数据行数" style="whiteSpace=wrap;html=1;" vertex="1" parent="1">
          <mxGeometry x="500" y="370" width="120" height="60" as="geometry" />
        </mxCell>
        <mxCell id="O5_ibAGLlx0cMh9g0pgZ-32" style="edgeStyle=none;rounded=0;orthogonalLoop=1;jettySize=auto;html=1;exitX=0.5;exitY=1;exitDx=0;exitDy=0;" edge="1" parent="1" source="O5_ibAGLlx0cMh9g0pgZ-27">
          <mxGeometry relative="1" as="geometry">
            <mxPoint x="400" y="690" as="targetPoint" />
          </mxGeometry>
        </mxCell>
        <mxCell id="O5_ibAGLlx0cMh9g0pgZ-27" value="除可执行文件名外，还有两个参数，分别是目标文件名和指定数据行数" style="whiteSpace=wrap;html=1;" vertex="1" parent="1">
          <mxGeometry x="340" y="530" width="120" height="60" as="geometry" />
        </mxCell>
        <mxCell id="O5_ibAGLlx0cMh9g0pgZ-35" value="" style="edgeStyle=none;rounded=0;orthogonalLoop=1;jettySize=auto;html=1;" edge="1" parent="1" source="O5_ibAGLlx0cMh9g0pgZ-33" target="O5_ibAGLlx0cMh9g0pgZ-34">
          <mxGeometry relative="1" as="geometry" />
        </mxCell>
        <mxCell id="O5_ibAGLlx0cMh9g0pgZ-33" value="分配内存，向内存中写入随机数据" style="rounded=0;whiteSpace=wrap;html=1;" vertex="1" parent="1">
          <mxGeometry x="340" y="690" width="120" height="60" as="geometry" />
        </mxCell>
        <mxCell id="O5_ibAGLlx0cMh9g0pgZ-34" value="将内存中的数据一次性写入文件" style="whiteSpace=wrap;html=1;rounded=0;" vertex="1" parent="1">
          <mxGeometry x="340" y="830" width="120" height="60" as="geometry" />
        </mxCell>
      </root>
    </mxGraphModel>
  </diagram>
</mxfile>
